[img]http://img577.imageshack.us/img577/7127/intimen.jpg[/img]
[code]
In Time 2011 R5 V2 XVID AC3 5.1-26K

Imdb: 
http://www.imdb.com/title/tt1637688

Plot:
In a future where people stop aging at 25, but are engineered to live only one more year, having the means to buy your way out of the situation is a shot at immortal youth

Sources:
R5 DVD9
thnxs  MiSTERE+CM8

Notes:
Encoded the video added a few filters to make it look nice :)
thnxs to CM8 for cleaned up line audio you rock :) good job !

Greetz:
To all the people who have helped me :P you know who you are

Video
ID                                       : 0
Format                                   : MPEG-4 Visual
Format profile                           : Advanced Simple@L5
Format settings, BVOP                    : 2
Format settings, QPel                    : No
Format settings, GMC                     : No warppoints
Format settings, Matrix                  : Default (H.263)
Codec ID                                 : XVID
Codec ID/Hint                            : XviD
Duration                                 : 1h 44mn
Bit rate                                 : 1 900 Kbps
Width                                    : 720 pixels
Height                                   : 304 pixels
Display aspect ratio                     : 2.35:1
Frame rate                               : 25.000 fps
Color space                              : YUV
Chroma subsampling                       : 4:2:0
Bit depth                                : 8 bits
Scan type                                : Progressive
Compression mode                         : Lossy
Bits/(Pixel*Frame)                       : 0.347
Stream size                              : 1.39 GiB (83%)
Writing library                          : XviD 63

Audio
ID                                       : 1
Format                                   : AC-3
Format/Info                              : Audio Coding 3
Mode extension                           : CM (complete main)
Codec ID                                 : 2000
Duration                                 : 1h 44mn
Bit rate mode                            : Constant
Bit rate                                 : 384 Kbps
Channel(s)                               : 6 channels
Channel positions                        : Front: L C R, Side: L R, LFE
Sampling rate                            : 48.0 KHz
Bit depth                                : 16 bits
Compression mode                         : Lossy
Stream size                              : 288 MiB (17%)
Alignment                                : Aligned on interleaves
Interleave, duration                     : 40 ms (1.00 video frame)
[/code]
Screens:
[img]http://img403.imageshack.us/img403/6274/vlcsnap2011120521h21m45.png[/img]
[img]http://img440.imageshack.us/img440/8995/vlcsnap2011120521h21m53.png[/img]
[img]http://img7.imageshack.us/img7/7854/vlcsnap2011120521h22m00.png[/img]
[img]http://img812.imageshack.us/img812/5097/vlcsnap2011120521h22m08.png[/img]
[img]http://img804.imageshack.us/img804/6387/vlcsnap2011120521h22m15.png[/img]